<?xml version="1.0" standalone="no"?>
<!DOCTYPE svg PUBLIC "-//W3C//DTD SVG 20010904//EN"
 "http://www.w3.org/TR/2001/REC-SVG-20010904/DTD/svg10.dtd">
<svg version="1.0" xmlns="http://www.w3.org/2000/svg"
 width="200.000000pt" height="200.000000pt" viewBox="0 0 200.000000 200.000000"
 preserveAspectRatio="xMidYMid meet">

<g transform="translate(0.000000,200.000000) scale(0.100000,-0.100000)"
fill="#000000" stroke="none">
<path d="M922 1735 l-112 -75 0 -80 0 -79 -55 -33 -54 -33 -1 -67 c0 -54 3
-68 15 -68 12 0 15 13 15 59 l0 60 55 33 54 33 1 80 0 81 100 67 100 67 0 -99
c0 -98 0 -100 30 -124 21 -18 30 -35 30 -56 0 -21 5 -31 15 -31 11 0 15 11 15
38 0 31 -6 43 -30 60 l-30 23 0 109 c0 98 -2 110 -18 110 -9 0 -68 -34 -130
-75z"/>
<path d="M990 1655 c0 -8 5 -15 10 -15 6 0 10 7 10 15 0 8 -4 15 -10 15 -5 0
-10 -7 -10 -15z"/>
<path d="M990 1595 c0 -8 5 -15 10 -15 6 0 10 7 10 15 0 8 -4 15 -10 15 -5 0
-10 -7 -10 -15z"/>
<path d="M990 1540 c0 -5 5 -10 10 -10 6 0 10 5 10 10 0 6 -4 10 -10 10 -5 0
-10 -4 -10 -10z"/>
<path d="M990 1485 c0 -8 5 -15 10 -15 6 0 10 7 10 15 0 8 -4 15 -10 15 -5 0
-10 -7 -10 -15z"/>
<path d="M1040 1485 c0 -8 7 -15 15 -15 8 0 15 7 15 15 0 8 -7 15 -15 15 -8 0
-15 -7 -15 -15z"/>
<path d="M990 1425 c0 -8 5 -15 10 -15 6 0 10 7 10 15 0 8 -4 15 -10 15 -5 0
-10 -7 -10 -15z"/>
<path d="M1040 1425 c0 -8 7 -15 15 -15 8 0 15 7 15 15 0 8 -7 15 -15 15 -8 0
-15 -7 -15 -15z"/>
<path d="M1100 1410 c0 -27 -3 -30 -30 -30 l-30 0 0 -200 0 -200 -155 0 c-166
0 -176 3 -130 46 18 16 25 34 25 58 0 34 -42 162 -59 179 -13 13 -28 -13 -56
-96 -28 -86 -26 -119 11 -144 42 -27 30 -43 -31 -43 -42 0 -55 -3 -55 -15 0
-13 52 -15 410 -15 226 0 410 4 410 9 0 19 -23 71 -31 71 -5 0 -21 14 -36 30
-19 21 -35 30 -58 30 -31 0 -65 -25 -65 -47 0 -6 -7 -13 -15 -17 -8 -3 -15
-15 -15 -26 0 -18 -6 -20 -60 -20 l-60 0 0 185 0 185 100 0 100 0 0 -110 c0
-91 3 -110 15 -110 13 0 15 21 15 125 l0 125 -30 0 c-27 0 -30 3 -30 30 l0 30
-70 0 -70 0 0 -30z m118 -12 c-3 -7 -23 -14 -46 -16 -33 -2 -42 0 -42 12 0 12
11 16 46 16 32 0 44 -4 42 -12z m-464 -294 c4 -19 1 -36 -8 -49 -15 -19 -15
-19 -16 8 0 17 -5 27 -15 27 -10 0 -15 -10 -15 -26 0 -23 -2 -25 -16 -13 -18
15 -13 68 12 127 l16 37 18 -41 c10 -22 21 -54 24 -70z m560 -50 c9 -8 16 -22
16 -30 0 -8 9 -14 20 -14 11 0 20 -7 20 -15 0 -12 -15 -15 -75 -15 -60 0 -75
3 -75 15 0 8 5 15 10 15 6 0 10 5 10 12 0 16 30 48 46 48 7 0 20 -7 28 -16z"/>
<path d="M990 1365 c0 -8 5 -15 10 -15 6 0 10 7 10 15 0 8 -4 15 -10 15 -5 0
-10 -7 -10 -15z"/>
<path d="M985 1310 c3 -5 10 -10 16 -10 5 0 9 5 9 10 0 6 -7 10 -16 10 -8 0
-12 -4 -9 -10z"/>
<path d="M1100 1310 c0 -6 30 -10 70 -10 40 0 70 4 70 10 0 6 -30 10 -70 10
-40 0 -70 -4 -70 -10z"/>
<path d="M990 1255 c0 -8 5 -15 10 -15 6 0 10 7 10 15 0 8 -4 15 -10 15 -5 0
-10 -7 -10 -15z"/>
<path d="M1100 1255 c0 -12 14 -15 70 -15 56 0 70 3 70 15 0 12 -14 15 -70 15
-56 0 -70 -3 -70 -15z"/>
<path d="M990 1195 c0 -8 5 -15 10 -15 6 0 10 7 10 15 0 8 -4 15 -10 15 -5 0
-10 -7 -10 -15z"/>
<path d="M1100 1195 c0 -12 14 -15 70 -15 56 0 70 3 70 15 0 12 -14 15 -70 15
-56 0 -70 -3 -70 -15z"/>
<path d="M990 1140 c0 -5 5 -10 10 -10 6 0 10 5 10 10 0 6 -4 10 -10 10 -5 0
-10 -4 -10 -10z"/>
<path d="M1100 1140 c0 -6 30 -10 70 -10 40 0 70 4 70 10 0 6 -30 10 -70 10
-40 0 -70 -4 -70 -10z"/>
<path d="M990 1080 c0 -5 5 -10 10 -10 6 0 10 5 10 10 0 6 -4 10 -10 10 -5 0
-10 -4 -10 -10z"/>
<path d="M1100 1080 c0 -5 23 -10 50 -10 28 0 50 5 50 10 0 6 -22 10 -50 10
-27 0 -50 -4 -50 -10z"/>
<path d="M990 1025 c0 -8 5 -15 10 -15 6 0 10 7 10 15 0 8 -4 15 -10 15 -5 0
-10 -7 -10 -15z"/>
<path d="M1100 1026 c0 -11 10 -16 31 -16 38 0 35 24 -4 28 -19 2 -27 -1 -27
-12z"/>
<path d="M740 841 c0 -11 -7 -26 -15 -35 -17 -17 -20 -36 -5 -36 6 0 10 -38
10 -94 0 -103 10 -123 55 -112 28 7 35 35 8 32 -16 -1 -18 10 -21 87 -3 82 -2
87 18 87 11 0 20 7 20 15 0 8 -9 15 -20 15 -16 0 -20 7 -20 30 0 20 -5 30 -15
30 -8 0 -15 -9 -15 -19z"/>
<path d="M856 785 c-33 -34 -33 -170 0 -206 29 -32 71 -24 93 18 17 33 14 154
-5 181 -18 26 -65 30 -88 7z m62 -96 c2 -58 -1 -79 -12 -89 -13 -10 -17 -8
-26 15 -21 56 -9 158 19 153 13 -3 17 -19 19 -79z"/>
<path d="M1000 708 c0 -51 3 -103 6 -115 8 -28 36 -38 66 -22 16 9 23 9 26 0
2 -6 10 -11 18 -11 11 0 14 23 14 120 0 113 -1 120 -20 120 -19 0 -20 -7 -20
-93 0 -97 -11 -127 -37 -106 -9 8 -13 40 -13 105 0 87 -1 94 -20 94 -19 0 -20
-7 -20 -92z"/>
<path d="M1180 680 c0 -113 1 -120 20 -120 19 0 20 7 20 105 0 87 3 105 15
105 8 0 15 -9 15 -20 0 -11 7 -20 15 -20 10 0 15 10 15 30 0 35 -23 49 -51 31
-12 -7 -19 -7 -19 -1 0 5 -7 10 -15 10 -12 0 -15 -20 -15 -120z"/>
</g>
</svg>
